<?xml version="1.0" standalone="no"?>
<!DOCTYPE svg PUBLIC "-//W3C//DTD SVG 20010904//EN"
 "http://www.w3.org/TR/2001/REC-SVG-20010904/DTD/svg10.dtd">
<svg version="1.0" xmlns="http://www.w3.org/2000/svg"
 width="500.000000pt" height="500.000000pt" viewBox="0 0 500.000000 500.000000"
 preserveAspectRatio="xMidYMid meet">

<g transform="translate(0.000000,500.000000) scale(0.100000,-0.100000)"
fill="#000000" stroke="none">
<path d="M2177 4794 c-416 -57 -836 -245 -1167 -522 -141 -118 -140 -112 -29
-112 420 -2 1062 -242 1769 -663 260 -155 218 -107 444 -500 110 -190 203
-344 208 -341 11 7 10 361 -2 605 -29 563 -118 1004 -263 1294 -40 80 -115
193 -135 204 -92 46 -590 67 -825 35z"/>
<path d="M3165 4672 c219 -368 342 -1099 321 -1918 l-6 -252 -186 -323 c-102
-178 -196 -339 -207 -358 l-21 -35 90 49 c498 271 896 556 1189 849 173 173
263 290 327 423 l40 82 -18 53 c-158 478 -501 919 -934 1201 -164 106 -398
219 -544 261 -31 9 -62 19 -71 22 -10 4 -3 -15 20 -54z"/>
<path d="M814 4072 c-47 -15 -256 -297 -357 -483 -123 -227 -217 -520 -252
-792 -30 -234 -15 -584 34 -788 l18 -74 19 34 c52 90 137 209 216 299 277 318
796 695 1409 1020 l116 62 409 0 409 0 -65 41 c-198 126 -621 349 -833 438
-404 171 -719 252 -976 250 -69 -1 -136 -4 -147 -7z"/>
<path d="M1895 3194 c-252 -131 -590 -344 -823 -518 -381 -285 -641 -559 -748
-792 l-34 -73 16 -48 c211 -624 680 -1132 1284 -1391 113 -49 280 -105 280
-95 0 3 -8 17 -19 31 -52 75 -136 274 -182 432 -104 364 -153 800 -152 1380
l0 375 198 340 c213 367 217 375 213 375 -2 0 -16 -7 -33 -16z"/>
<path d="M4697 2987 c-178 -306 -613 -689 -1167 -1029 -124 -76 -378 -222
-470 -269 l-65 -34 -410 -5 -410 -5 155 -91 c529 -313 1012 -518 1425 -605 89
-19 141 -23 277 -24 l167 0 38 44 c301 346 488 753 559 1216 23 149 23 479 0
630 -14 96 -45 256 -50 255 0 -1 -23 -38 -49 -83z"/>
<path d="M2363 3026 c-89 -22 -180 -74 -247 -140 -240 -238 -198 -629 87 -816
168 -110 395 -111 563 -2 161 104 244 256 244 447 0 113 -23 196 -78 281 -121
187 -355 281 -569 230z"/>
<path d="M1595 2250 c-8 -119 -1 -409 16 -650 40 -575 168 -1064 342 -1301
l42 -57 80 -16 c44 -9 127 -21 185 -27 138 -15 485 -6 610 15 428 74 809 251
1135 528 l110 93 -55 2 c-125 6 -282 25 -390 49 -402 89 -1023 368 -1533 690
l-126 79 -153 265 c-84 146 -176 305 -204 353 l-52 89 -7 -112z"/>
</g>
</svg>
